<?xml version="1.0" encoding="UTF-8" standalone="no"?>
<svg
   xmlns:dc="http://purl.org/dc/elements/1.1/"
   xmlns:cc="http://creativecommons.org/ns#"
   xmlns:rdf="http://www.w3.org/1999/02/22-rdf-syntax-ns#"
   xmlns:svg="http://www.w3.org/2000/svg"
   xmlns="http://www.w3.org/2000/svg"
   xmlns:sodipodi="http://sodipodi.sourceforge.net/DTD/sodipodi-0.dtd"
   xmlns:inkscape="http://www.inkscape.org/namespaces/inkscape"
   id="svg1"
   inkscape:version="0.48.0 r9654"
   viewBox="0 0 60 60"
   sodipodi:version="0.32"
   _SVGFile__filename="oldscale/actions/circle.svg"
   version="1.0"
   y="0"
   x="0"
   sodipodi:docname="polygon.svg"
   width="100%"
   height="100%">
  <defs
     id="defs16" />
  <sodipodi:namedview
     id="base"
     bordercolor="#666666"
     inkscape:window-x="54"
     inkscape:window-y="-8"
     pagecolor="#ffffff"
     inkscape:zoom="9.2069358"
     inkscape:pageshadow="2"
     borderopacity="1.0"
     inkscape:current-layer="svg1"
     inkscape:cx="-3.0489489"
     inkscape:cy="19.878985"
     inkscape:window-width="1858"
     inkscape:pageopacity="0.0000000"
     inkscape:window-height="1178"
     showgrid="false"
     inkscape:window-maximized="1" />
  <path
     id="path1345"
     sodipodi:nodetypes="ccccc"
     style="stroke-linejoin:round;color:#000000;stroke:#ffffff;stroke-linecap:round;stroke-width:10;fill:none"
     d="m14.377 23.115l28.246-13 8 30.246-41.246 10 5-27.246z" />
  <path
     id="path1321"
     style="stroke-linejoin:round;color:#000000;display:block;stroke:#ffffff;stroke-linecap:round;stroke-width:8.125;fill:none"
     d="m20.773 23.483c0 3.276-2.658 5.935-5.934 5.935s-5.9349-2.659-5.9349-5.935 2.6589-5.934 5.9349-5.934 5.934 2.658 5.934 5.934z" />
  <path
     id="path2085"
     style="stroke-linejoin:round;color:#000000;display:block;stroke:#ffffff;stroke-linecap:round;stroke-width:8.125;fill:none"
     d="m55.313 39.992c0 3.276-2.659 5.935-5.935 5.935s-5.935-2.659-5.935-5.935c0-3.275 2.659-5.934 5.935-5.934s5.935 2.659 5.935 5.934z" />
  <path
     id="path1318"
     style="stroke-linejoin:round;color:#000000;display:block;stroke:#ffffff;stroke-linecap:round;stroke-width:8.125;fill:none"
     d="m16.557 49.116c0 3.276-2.659 5.935-5.935 5.935-3.2758 0-5.9345-2.659-5.9345-5.935s2.6587-5.935 5.9345-5.935c3.276 0 5.935 2.659 5.935 5.935z" />
  <path
     id="path1317"
     style="stroke-linejoin:round;color:#000000;display:block;stroke:#ffffff;stroke-linecap:round;stroke-width:8.125;fill:none"
     d="m48.361 10.884c0 3.276-2.658 5.935-5.934 5.935s-5.935-2.659-5.935-5.935c0-3.2759 2.659-5.9346 5.935-5.9346s5.934 2.6587 5.934 5.9346z" />
  <path
     style="font-size:medium;font-style:normal;font-variant:normal;font-weight:normal;font-stretch:normal;text-indent:0;text-align:start;text-decoration:none;line-height:normal;letter-spacing:normal;word-spacing:normal;text-transform:none;direction:ltr;block-progression:tb;writing-mode:lr-tb;text-anchor:start;baseline-shift:baseline;color:#000000;fill:#3ea8f2;fill-opacity:1;stroke:none;stroke-width:5;marker:none;visibility:visible;display:inline;overflow:visible;enable-background:accumulate;font-family:Sans;-inkscape-font-specification:Sans"
     d="m 34.96875,10.65625 -15.4375,6.90625 2.0625,4.5625 15.4375,-6.90625 -2.0625,-4.5625 z m 11.71875,6.5 -4.875,1.125 3.5625,15.5625 L 50.25,32.75 46.6875,17.15625 z M 10.78125,28.6875 8.46875,42.75 13.40625,43.53125 15.71875,29.5 10.78125,28.6875 z m 33.46875,11.125 -28.4375,6.59375 1.125,4.875 28.4375,-6.59375 -1.125,-4.875 z"
     id="rect2089"
     inkscape:connector-curvature="0" />
  <path
     style="font-size:medium;font-style:normal;font-variant:normal;font-weight:normal;font-stretch:normal;text-indent:0;text-align:start;text-decoration:none;line-height:normal;letter-spacing:normal;word-spacing:normal;text-transform:none;direction:ltr;block-progression:tb;writing-mode:lr-tb;text-anchor:start;baseline-shift:baseline;color:#000000;fill:#3ea8f2;fill-opacity:1;stroke:none;stroke-width:3.125;marker:none;visibility:visible;display:block;overflow:visible;enable-background:accumulate;font-family:Sans;-inkscape-font-specification:Sans"
     d="m 42.4375,3.375 c -4.121384,0 -7.5,3.3785944 -7.5,7.5 0,4.12148 3.37852,7.5 7.5,7.5 4.12148,0 7.5,-3.378838 7.5,-7.5 0,-4.1210876 -3.378616,-7.5 -7.5,-7.5 z m 0,3.125 c 2.430616,0 4.375,1.9442876 4.375,4.375 0,2.430838 -1.94448,4.375 -4.375,4.375 -2.43052,0 -4.375,-1.94448 -4.375,-4.375 0,-2.4303944 1.944384,-4.375 4.375,-4.375 z"
     id="path1319"
     inkscape:connector-curvature="0" />
  <path
     style="font-size:medium;font-style:normal;font-variant:normal;font-weight:normal;font-stretch:normal;text-indent:0;text-align:start;text-decoration:none;line-height:normal;letter-spacing:normal;word-spacing:normal;text-transform:none;direction:ltr;block-progression:tb;writing-mode:lr-tb;text-anchor:start;baseline-shift:baseline;color:#000000;fill:#3ea8f2;fill-opacity:1;stroke:none;stroke-width:3.125;marker:none;visibility:visible;display:block;overflow:visible;enable-background:accumulate;font-family:Sans;-inkscape-font-specification:Sans"
     d="m 10.625,41.625 c -4.1213314,0 -7.5,3.378616 -7.5,7.5 0,4.121384 3.3786686,7.5 7.5,7.5 4.12148,0 7.5,-3.37852 7.5,-7.5 0,-4.12148 -3.37852,-7.5 -7.5,-7.5 z m 0,3.125 c 2.43052,0 4.375,1.94448 4.375,4.375 0,2.43052 -1.94448,4.375 -4.375,4.375 -2.4302686,0 -4.375,-1.944384 -4.375,-4.375 0,-2.430616 1.9447314,-4.375 4.375,-4.375 z"
     id="path1320"
     inkscape:connector-curvature="0" />
  <path
     style="font-size:medium;font-style:normal;font-variant:normal;font-weight:normal;font-stretch:normal;text-indent:0;text-align:start;text-decoration:none;line-height:normal;letter-spacing:normal;word-spacing:normal;text-transform:none;direction:ltr;block-progression:tb;writing-mode:lr-tb;text-anchor:start;baseline-shift:baseline;color:#000000;fill:#3ea8f2;fill-opacity:1;stroke:none;stroke-width:3.125;marker:none;visibility:visible;display:block;overflow:visible;enable-background:accumulate;font-family:Sans;-inkscape-font-specification:Sans"
     d="m 49.375,32.5 c -4.12148,0 -7.5,3.379262 -7.5,7.5 0,4.12148 3.37852,7.5 7.5,7.5 4.12148,0 7.5,-3.37852 7.5,-7.5 0,-4.120738 -3.37852,-7.5 -7.5,-7.5 z m 0,3.125 c 2.43052,0 4.375,1.945738 4.375,4.375 0,2.43052 -1.94448,4.375 -4.375,4.375 C 46.94448,44.375 45,42.43052 45,40 c 0,-2.429262 1.94448,-4.375 4.375,-4.375 z"
     id="path2087"
     inkscape:connector-curvature="0" />
  <path
     style="font-size:medium;font-style:normal;font-variant:normal;font-weight:normal;font-stretch:normal;text-indent:0;text-align:start;text-decoration:none;line-height:normal;letter-spacing:normal;word-spacing:normal;text-transform:none;direction:ltr;block-progression:tb;writing-mode:lr-tb;text-anchor:start;baseline-shift:baseline;color:#000000;fill:#3ea8f2;fill-opacity:1;stroke:none;stroke-width:3.125;marker:none;visibility:visible;display:block;overflow:visible;enable-background:accumulate;font-family:Sans;-inkscape-font-specification:Sans"
     d="m 14.84375,16 c -4.121162,0 -7.5,3.347302 -7.5,7.46875 0,4.121448 3.37852,7.5 7.5,7.5 4.12148,0 7.5,-3.378838 7.5,-7.5 0,-4.121162 -3.378838,-7.46875 -7.5,-7.46875 z m 0,3.125 c 2.430838,0 4.375,1.912912 4.375,4.34375 0,2.430838 -1.94448,4.375 -4.375,4.375 -2.43052,0 -4.375,-1.944448 -4.375,-4.375 0,-2.430552 1.944162,-4.34375 4.375,-4.34375 z"
     id="path1323"
     inkscape:connector-curvature="0" />
  <metadata
     id="metadata14">
    <rdf:RDF>
      <cc:Work>
        <dc:format>image/svg+xml</dc:format>
        <dc:type
           rdf:resource="http://purl.org/dc/dcmitype/StillImage" />
        <cc:license
           rdf:resource="http://creativecommons.org/licenses/publicdomain/" />
        <dc:publisher>
          <cc:Agent
             rdf:about="http://openclipart.org/">
            <dc:title>Openclipart</dc:title>
          </cc:Agent>
        </dc:publisher>
      </cc:Work>
      <cc:License
         rdf:about="http://creativecommons.org/licenses/publicdomain/">
        <cc:permits
           rdf:resource="http://creativecommons.org/ns#Reproduction" />
        <cc:permits
           rdf:resource="http://creativecommons.org/ns#Distribution" />
        <cc:permits
           rdf:resource="http://creativecommons.org/ns#DerivativeWorks" />
      </cc:License>
    </rdf:RDF>
  </metadata>
</svg>
