<?xml version="1.0" encoding="UTF-8" standalone="no"?>
<svg
   xmlns:dc="http://purl.org/dc/elements/1.1/"
   xmlns:cc="http://creativecommons.org/ns#"
   xmlns:rdf="http://www.w3.org/1999/02/22-rdf-syntax-ns#"
   xmlns:svg="http://www.w3.org/2000/svg"
   xmlns="http://www.w3.org/2000/svg"
   xmlns:xlink="http://www.w3.org/1999/xlink"
   xmlns:sodipodi="http://sodipodi.sourceforge.net/DTD/sodipodi-0.dtd"
   xmlns:inkscape="http://www.inkscape.org/namespaces/inkscape"
   width="48"
   height="48"
   viewBox="0 0 48 48"
   version="1.1"
   id="svg4"
   sodipodi:docname="rotate_left_48px.svg"
   inkscape:version="0.92.1 r15371">
  <metadata
     id="metadata10">
    <rdf:RDF>
      <cc:Work
         rdf:about="">
        <dc:format>image/svg+xml</dc:format>
        <dc:type
           rdf:resource="http://purl.org/dc/dcmitype/StillImage" />
      </cc:Work>
    </rdf:RDF>
  </metadata>
  <defs
     id="defs8">
    <linearGradient
       id="linearGradient3686">
      <stop
         style="stop-color:#0d6fb3;stop-opacity:1;"
         offset="0"
         id="stop3688" />
      <stop
         style="stop-color:#8bcaf7;stop-opacity:1;"
         offset="1"
         id="stop3690" />
    </linearGradient>
    <linearGradient
       inkscape:collect="always"
       xlink:href="#linearGradient3686"
       id="linearGradient4507"
       x1="0.41118678"
       y1="0.59101725"
       x2="47.932205"
       y2="47.57407"
       gradientUnits="userSpaceOnUse" />
  </defs>
  <sodipodi:namedview
     pagecolor="#ffffff"
     bordercolor="#666666"
     borderopacity="1"
     objecttolerance="10"
     gridtolerance="10"
     guidetolerance="10"
     inkscape:pageopacity="0"
     inkscape:pageshadow="2"
     inkscape:window-width="2498"
     inkscape:window-height="1417"
     id="namedview6"
     showgrid="false"
     inkscape:zoom="4.9166667"
     inkscape:cx="24"
     inkscape:cy="24"
     inkscape:window-x="54"
     inkscape:window-y="-8"
     inkscape:window-maximized="1"
     inkscape:current-layer="svg4" />
  <path
     d="M14.22 17.05l-2.83-2.83c-1.8 2.32-2.91 5-3.25 7.78h4.04c.29-1.75.97-3.44 2.04-4.95zM12.18 26H8.14c.34 2.78 1.45 5.46 3.25 7.78l2.83-2.83c-1.07-1.51-1.75-3.2-2.04-4.95zm2.02 10.63c2.32 1.81 5.02 2.88 7.8 3.22v-4.04c-1.75-.29-3.43-.98-4.93-2.05l-2.87 2.87zM26 8.14V2l-9.1 9.1L26 20v-7.82c5.67.95 10 5.88 10 11.82s-4.33 10.87-10 11.82v4.04c7.89-.99 14-7.7 14-15.86S33.89 9.13 26 8.14z"
     id="path2"
     style="fill-opacity:1;fill:url(#linearGradient4507)" />
</svg>
