<?xml version="1.0" encoding="UTF-8" standalone="no"?>
<svg
   xmlns:dc="http://purl.org/dc/elements/1.1/"
   xmlns:cc="http://creativecommons.org/ns#"
   xmlns:rdf="http://www.w3.org/1999/02/22-rdf-syntax-ns#"
   xmlns:svg="http://www.w3.org/2000/svg"
   xmlns="http://www.w3.org/2000/svg"
   xmlns:sodipodi="http://sodipodi.sourceforge.net/DTD/sodipodi-0.dtd"
   xmlns:inkscape="http://www.inkscape.org/namespaces/inkscape"
   width="48"
   height="48"
   version="1.1"
   id="svg10"
   sodipodi:docname="ShoppingCart1.svg"
   inkscape:version="0.92.1 r15371">
  <defs
     id="defs14" />
  <sodipodi:namedview
     pagecolor="#ffffff"
     bordercolor="#666666"
     borderopacity="1"
     objecttolerance="10"
     gridtolerance="10"
     guidetolerance="10"
     inkscape:pageopacity="0"
     inkscape:pageshadow="2"
     inkscape:window-width="2482"
     inkscape:window-height="1411"
     id="namedview12"
     showgrid="false"
     inkscape:zoom="22.627417"
     inkscape:cx="23.01345"
     inkscape:cy="21.334499"
     inkscape:window-x="69"
     inkscape:window-y="-9"
     inkscape:window-maximized="1"
     inkscape:current-layer="g8" />
  <title
     id="title2">shopping cart - hot pink</title>
  <metadata
     id="metadata7">image/svg+xmlshopping cartcartsupermarketshoppingshopping cartSergio Luiz Araujo Silva<rdf:RDF>
  <cc:Work
     rdf:about="">
    <dc:format>image/svg+xml</dc:format>
    <dc:type
       rdf:resource="http://purl.org/dc/dcmitype/StillImage" />
    <dc:title>shopping cart - hot pink</dc:title>
  </cc:Work>
</rdf:RDF>
</metadata>
  <g
     id="g8"
     transform="translate(0,-432)">
    <path
       id="path3847"
       d="m 3.4468178,439.45976 c 0.06289,7.3e-4 0.127637,0.005 0.189476,0.0138 0.0011,1.8e-4 0.0023,-1.8e-4 0.0035,0 l 9.2307462,0.62346 c 0.39717,0.0535 0.730137,0.26728 0.877093,0.56181 v 0.003 l 2.897868,5.8328 25.294721,0.7673 c 0.32521,0.006 0.6305,0.12169 0.84194,0.31395 0.21144,0.19228 0.31326,0.44796 0.2737,0.70228 l -1.811265,11.98754 c -0.0644,0.4253 -0.433895,0.76258 -0.977875,0.79585 0,0 -12.040149,0.66864 -18.218453,1.04693 -2.208452,0.17644 -3.508042,0.26495 -3.591194,0.87452 0.04987,0.65979 1.675874,0.6367 2.700762,0.63139 7.113716,0.0535 14.150773,-0.0252 20.073965,0.0261 0.63195,-0.003 1.18981,0.84978 1.15603,1.47847 -0.002,0.621 -0.63013,1.62312 -1.262,1.61602 -0.002,-6e-5 -0.002,0 -0.003,0 -11.24263,0.0357 -15.540516,0.0172 -24.736519,-0.34269 -1.164964,-0.0456 -3.068587,-1.48167 -2.888845,-3.11352 0.236213,-2.14452 1.394411,-3.0332 4.186188,-3.51403 l -8.5431621,-16.60591 -5.602841,-0.74908 c -0.0012,-1.8e-4 -0.0023,1.8e-4 -0.0035,0 -0.588574,-0.0742 -1.1736986,-0.68167 -1.1450787,-1.43617 0.05081,-0.77751 0.4599576,-1.52033 1.0577856,-1.51395 h -4.4e-5 z"
       style="fill:#51a0d8;fill-opacity:1;stroke-width:1.06466317"
       inkscape:connector-curvature="0"
       sodipodi:nodetypes="cccccccccccccccccccsscccccccc" />
    <title
       id="title6">Layer 1</title>
    <path
       style="fill:#f9f9f9;fill-opacity:1;stroke-width:0.06868795"
       d="m 17.983249,449.77893 20.924661,0.55963 -1.179494,7.27125 -15.55039,1.04633 z"
       id="rect4497"
       inkscape:connector-curvature="0"
       sodipodi:nodetypes="ccccc" />
    <rect
       style="fill:#51a0d8;fill-opacity:1;stroke-width:0.09029011"
       id="rect4500"
       width="2.6421609"
       height="12.706354"
       x="-163.4641"
       y="465.22336"
       transform="matrix(0.9921575,-0.12499396,0.39510709,0.91863507,0,0)" />
    <rect
       style="fill:#51a0d8;fill-opacity:1;stroke-width:0.08501533"
       id="rect4500-6"
       width="2.4683216"
       height="12.058479"
       x="93.741051"
       y="447.03104"
       inkscape:transform-center-x="-0.030289292"
       inkscape:transform-center-y="0.10280086"
       transform="matrix(0.99885555,0.04782883,-0.13678033,0.9906014,0,0)" />
    <rect
       style="fill:#51a0d8;fill-opacity:1;stroke-width:0.12078197"
       id="rect4500-6-1"
       width="2.3309066"
       height="25.773838"
       x="-455.49484"
       y="8.3767195"
       inkscape:transform-center-x="-0.21659002"
       inkscape:transform-center-y="-0.043711696"
       transform="matrix(-0.01613785,-0.99986978,0.9999601,-0.00893325,0,0)" />
    <ellipse
       style="fill:#51a0d8;fill-opacity:1;stroke-width:0.08349895"
       id="path4532"
       cx="19.508566"
       cy="470.22"
       rx="4.5805774"
       ry="4.1157446" />
    <ellipse
       style="fill:#51a0d8;fill-opacity:1;stroke-width:0.08178999"
       id="path4532-3"
       cx="37.162647"
       cy="470.34506"
       rx="4.4868274"
       ry="4.0315084" />
  </g>
</svg>
