<?xml version="1.0" encoding="UTF-8" standalone="no"?>
<svg
   xmlns:dc="http://purl.org/dc/elements/1.1/"
   xmlns:cc="http://creativecommons.org/ns#"
   xmlns:rdf="http://www.w3.org/1999/02/22-rdf-syntax-ns#"
   xmlns:svg="http://www.w3.org/2000/svg"
   xmlns="http://www.w3.org/2000/svg"
   xmlns:sodipodi="http://sodipodi.sourceforge.net/DTD/sodipodi-0.dtd"
   xmlns:inkscape="http://www.inkscape.org/namespaces/inkscape"
   width="48"
   height="48"
   version="1.1"
   id="svg26"
   sodipodi:docname="edit.svg"
   inkscape:version="0.92.1 r15371">
  <defs
     id="defs30" />
  <sodipodi:namedview
     pagecolor="#ffffff"
     bordercolor="#666666"
     borderopacity="1"
     objecttolerance="10"
     gridtolerance="10"
     guidetolerance="10"
     inkscape:pageopacity="0"
     inkscape:pageshadow="2"
     inkscape:window-width="2498"
     inkscape:window-height="1417"
     id="namedview28"
     showgrid="false"
     inkscape:zoom="9.5144355"
     inkscape:cx="60.56777"
     inkscape:cy="19.072588"
     inkscape:window-x="54"
     inkscape:window-y="-8"
     inkscape:window-maximized="1"
     inkscape:current-layer="g24" />
  <title
     id="title2">Blue Pencil</title>
  <metadata
     id="metadata7">image/svg+xmlSergio Luiz Araujo Silvapencilofficewritetext<rdf:RDF>
  <cc:Work
     rdf:about="">
    <dc:format>image/svg+xml</dc:format>
    <dc:type
       rdf:resource="http://purl.org/dc/dcmitype/StillImage" />
    <dc:title>Blue Pencil</dc:title>
  </cc:Work>
</rdf:RDF>
</metadata>
  <g
     id="g24"
     transform="translate(0,-1074.5197)">
    <title
       id="title5">Layer 1</title>
    <g
       id="g4717"
       transform="matrix(0.12562099,0,0,0.12562099,-22.334523,1068.38)">
      <path
         d="m 432.65155,127.69469 -18.07587,28.83687 22.06995,22.02888 19.29251,-30.77782 z"
         id="path3707"
         inkscape:connector-curvature="0"
         style="fill:none;stroke:#000000;stroke-width:0.92387402px" />
      <path
         d="m 438.6282,105.49249 c 12.18805,7.67967 21.32441,17.2636 25.96427,25.76174 4.63986,8.4981 4.73651,14.63865 2.07706,18.88134 l -110.33317,176.01714 -85.26644,46.6496 4.94186,-97.26197 110.33316,-176.017169 c 2.65945,-4.242683 8.21991,-6.818695 17.86963,-6.312965 9.64975,0.505722 22.22559,4.6026 34.41363,12.282274 z"
         id="path3687"
         inkscape:connector-curvature="0"
         style="fill:#ffcb99;fill-rule:nonzero;stroke-width:7.4000001" />
      <path
         d="m 423.40314,128.51518 c -12.18805,-7.67969 -24.77921,-11.75202 -34.42899,-12.25777 -9.64975,-0.50575 -15.2102,2.07029 -17.86966,6.31297 l -7.69656,12.27856 c 1.436,-0.0406 2.88519,-0.041 4.34253,0.0354 13.35528,0.69994 28.18692,5.86312 42.40399,14.82126 14.21704,8.95816 25.26569,20.10207 31.68725,31.86351 0.70173,1.28525 1.32825,2.59085 1.91526,3.90766 l 7.69659,-12.27857 c 2.65946,-4.24267 2.53839,-10.3986 -2.1015,-18.89674 -4.63989,-8.49816 -13.76092,-18.10662 -25.94891,-25.78624 z"
         id="path3640"
         inkscape:connector-curvature="0"
         style="fill:#c8cfd1" />
      <path
         id="path3765"
         d="m 433.99145,112.86224 c -14.4938,-9.13253 -29.6015,-14.419704 -43.46206,-15.146091 -13.86057,-0.726395 -27.60404,3.618741 -34.83048,15.147291 l 112.2735,70.74336 c 7.22647,-11.52857 5.17057,-25.82886 -1.49405,-38.03533 -6.66449,-12.20643 -17.99316,-23.57676 -32.48687,-32.70923 z m -10.03164,16.00379 c 12.18796,7.67962 21.30896,17.28805 25.94885,25.78621 4.63989,8.49814 4.76099,14.6541 2.10153,18.89677 l -80.34906,-50.6278 c 2.65946,-4.2427 8.21988,-6.81872 17.86966,-6.31296 9.64978,0.50574 22.24094,4.57811 34.42902,12.25778 z M 448.6528,89.484879 c -14.49377,-9.132492 -29.60147,-14.41967 -43.46207,-15.146072 -13.86059,-0.726418 -27.60403,3.618721 -34.8305,15.14727 l -111.6236,178.075843 -1.30581,2.08319 -0.14994,2.46961 -5.92021,116.61132 -0.85281,16.86429 14.78618,-8.0849 102.23147,-55.92575 2.17883,-1.19122 1.30582,-2.08319 111.62357,-178.07584 c 7.22647,-11.52855 5.17056,-25.82883 -1.49399,-38.03528 -6.66455,-12.20643 -17.99323,-23.576787 -32.48697,-32.709271 z m -10.04706,16.028301 c 12.18805,7.67967 21.3244,17.26359 25.96427,25.76172 4.63986,8.49812 4.76095,14.65408 2.1015,18.89675 L 356.36908,326.1398 271.04745,372.823 275.98932,275.56104 386.32248,99.543876 c 2.65945,-4.242699 8.21988,-6.81871 17.86963,-6.312981 9.64975,0.505722 22.22555,4.6026 34.41363,12.282265 z"
         inkscape:connector-curvature="0"
         style="fill:#003466;stroke-width:20.41600037" />
      <path
         d="m 410.71207,150.05479 c -14.21707,-8.95814 -29.04871,-14.12133 -42.404,-14.82126 -13.35525,-0.69995 -26.11431,3.41808 -32.79272,14.07232 l 108.4602,68.34057 c 6.67841,-10.65423 4.84534,-23.9667 -1.57623,-35.72815 -6.42157,-11.76141 -17.47021,-22.90535 -31.68725,-31.86348 z m -7.61978,12.15601 c 12.46475,7.85402 21.84133,17.67346 26.72415,26.61662 4.88284,8.94313 5.21771,16.04698 2.01019,21.16399 l -84.16238,-53.03056 c 3.20752,-5.11701 9.73703,-7.89563 19.89209,-7.36342 10.15506,0.53221 23.0712,4.75935 35.53595,12.61337 z"
         id="path3605"
         inkscape:connector-curvature="0"
         style="fill:#003264;stroke-width:15.51599979" />
      <path
         d="m 438.80133,105.63644 c -12.18805,-7.679684 -24.76388,-11.776562 -34.4136,-12.282284 -8.1139,-0.425232 -13.3122,1.341644 -16.35013,4.432831 0.89841,0.0037 1.79178,0.0083 2.69293,0.05576 13.86056,0.726379 28.96823,6.013543 43.46207,15.146073 14.49374,9.13248 25.82245,20.50285 32.48697,32.70927 0.43331,0.79362 0.84957,1.61401 1.24261,2.42399 1.46042,-4.08519 0.76923,-9.56301 -3.13214,-16.70855 -4.63986,-8.49813 -13.80066,-18.09747 -25.98871,-25.77715 z"
         id="path3637"
         inkscape:connector-curvature="0"
         style="fill:#ff9596" />
      <path
         d="m 400.85919,160.98186 c -10.76361,-5.86878 -24.6658,-11.00937 -33.39044,-11.46662 -5.83106,-0.30559 -10.47803,0.47469 -13.9758,2.16822 l -4.00961,6.3966 -12.7201,20.2927 -32.13824,51.27093 -27.46808,43.82048 c 16.88229,4.0509 36.30481,6.88391 56.7066,-5.60248 z"
         id="path3670"
         inkscape:connector-curvature="0"
         style="fill:#669acc;fill-rule:nonzero;stroke-width:7.4000001" />
      <path
         id="path3675"
         d="m 405.03928,163.42232 c 9.94278,7.17828 20.59243,17.50775 24.78744,25.19116 2.80374,5.13519 4.11801,9.67162 4.11313,13.56601 l -4.00961,6.39661 -12.72013,20.29272 -32.13824,51.27095 -27.46805,43.82047 c -10.96286,-13.49427 -21.93295,-29.81165 -19.56021,-53.65812 z"
         inkscape:connector-curvature="0"
         style="fill:#9aceff;fill-rule:nonzero;stroke-width:8" />
      <g
         id="g4679"
         transform="matrix(0.923874,0,0,0.926278,-1.07619,-57.7956)">
        <path
           d="m 435.10141,236.11505 c -11.36093,-6.98582 -26.69824,-11.8856 -36.14175,-12.37926 -6.31156,-0.32991 -11.34144,0.51247 -15.12742,2.34078 l -4.33999,6.90572 -13.76822,21.90779 -34.78641,55.35156 -29.73141,47.30813 c 18.27334,4.3733 39.29629,7.43177 61.37915,-6.0484 z"
           id="path3745"
           inkscape:connector-curvature="0"
           style="fill:#669acc;fill-rule:nonzero;stroke-width:7" />
        <path
           id="path3747"
           d="m 439.53189,238.89943 c 11.20255,6.48138 22.28922,18.9012 26.8299,27.19612 3.03476,5.54388 4.45736,10.44138 4.45205,14.64569 l -4.33999,6.90573 -13.76825,21.90778 -34.78641,55.35159 -29.73138,47.30814 c -11.86618,-14.5683 -23.74021,-32.18436 -21.17194,-57.92871 z"
           inkscape:connector-curvature="0"
           style="fill:#9aceff;fill-rule:nonzero;stroke-width:7" />
      </g>
      <path
         d="m 271.43109,352.48358 -1.10565,21.49133 18.83484,-10.32015 c -3.28855,-6.82084 -8.94434,-10.44123 -17.72919,-11.17118 z"
         id="path3749"
         inkscape:connector-curvature="0"
         style="fill:#013365;fill-rule:nonzero;stroke-width:7.4000001" />
      <path
         d="m 400.94153,160.83792 -67.19324,107.19501 c -17.50265,10.44778 -33.92279,9.09942 -49.18784,5.79309 l -7.03793,-1.48319 -3.3229,5.8266 4.38592,1.05417 c 17.09634,4.10227 37.76492,7.08756 59.13135,-5.98923 l 0.64667,-0.37884 0.41479,-0.66171 67.63876,-107.90575 z"
         id="path3802"
         inkscape:connector-curvature="0"
         style="fill:#003466;stroke-width:7" />
      <path
         id="path3808"
         d="m 407.08899,164.71146 -67.19324,107.19503 c -1.79809,20.34317 6.53555,34.59214 16.12784,46.94834 l 4.38547,5.71469 -3.79517,5.52902 -2.84967,-3.50494 c -11.10183,-13.66544 -22.74927,-31.04239 -20.26431,-56.0163 l 0.06,-0.74853 0.41479,-0.66172 67.63874,-107.90574 5.47558,3.45015 z"
         inkscape:connector-curvature="0"
         style="fill:#003466;stroke-width:7" />
      <path
         d="m 391.4595,116.7466 -14.6665,19.48079 c 8.45187,1.48461 17.30139,4.56187 26.07056,9.11804 l 13.54049,-20.9281 c -8.92502,-4.46737 -17.6759,-7.03602 -24.94455,-7.67073 z"
         id="path4456"
         inkscape:connector-curvature="0"
         style="fill:#ffffff" />
    </g>
  </g>
</svg>
