<?xml version="1.0" encoding="UTF-8" standalone="no"?>
<svg
   xmlns:dc="http://purl.org/dc/elements/1.1/"
   xmlns:cc="http://creativecommons.org/ns#"
   xmlns:rdf="http://www.w3.org/1999/02/22-rdf-syntax-ns#"
   xmlns:svg="http://www.w3.org/2000/svg"
   xmlns="http://www.w3.org/2000/svg"
   xmlns:sodipodi="http://sodipodi.sourceforge.net/DTD/sodipodi-0.dtd"
   xmlns:inkscape="http://www.inkscape.org/namespaces/inkscape"
   width="48"
   height="48"
   id="svg2"
   version="1.1"
   inkscape:version="0.48.0 r9654"
   sodipodi:docname="gear.svg">
  <defs
     id="defs13" />
  <sodipodi:namedview
     pagecolor="#ffffff"
     bordercolor="#666666"
     borderopacity="1"
     objecttolerance="10"
     gridtolerance="10"
     guidetolerance="10"
     inkscape:pageopacity="0"
     inkscape:pageshadow="2"
     inkscape:window-width="2498"
     inkscape:window-height="1416"
     id="namedview11"
     showgrid="false"
     inkscape:zoom="17"
     inkscape:cx="40.573812"
     inkscape:cy="21.521886"
     inkscape:window-x="54"
     inkscape:window-y="-8"
     inkscape:window-maximized="1"
     inkscape:current-layer="svg2" />
  <metadata
     id="metadata3424">image/svg+xml<rdf:RDF>
  <cc:Work
     rdf:about="">
    <dc:format>image/svg+xml</dc:format>
    <dc:type
       rdf:resource="http://purl.org/dc/dcmitype/StillImage" />
    <dc:title />
  </cc:Work>
</rdf:RDF>
</metadata>
  <g
     id="g2987"
     transform="matrix(1.052023,0,0,1.052023,-1.1512235,-1.5179006)">
    <g
       transform="matrix(0.27010656,0,0,0.27010656,2.9927567,3.3336654)"
       id="g5">
      <title
         id="title7">Layer 1</title>
      <g
         id="layer1">
        <path
           style="fill:#0077c0;fill-rule:nonzero;stroke:#0077c0;stroke-width:3.43221807;stroke-miterlimit:4;stroke-dashoffset:0"
           inkscape:connector-curvature="0"
           stroke-miterlimit="4"
           id="path3243"
           d="M 73.46286,1.74194 C 71.8656,1.85132 70.312843,2.09863 68.7435,2.27826 l -0.106293,0 -3.753784,20.48602 C 58.764439,24.157709 53.008,26.52252 47.82938,29.73596 L 30.99011,17.61591 c -4.552151,3.534121 -8.69458,7.655941 -12.334501,12.119991 l 11.690922,17.053898 c -3.54965,5.424622 -6.219151,11.618771 -7.722542,18.1264 -1.79e-4,0.031 -1.79e-4,0.101929 0,0.106995 L 2.24515,68.240914 c -0.3725,3.043083 -0.53623,6.18811 -0.53623,9.33136 0,2.571709 0.07099,5.109123 0.32166,7.615227 l 20.378809,3.646729 c 1.449341,7.076843 4.20261,13.68597 8.044161,19.52075 l -12.11993,16.62476 c 3.4711,4.30926 7.47839,8.2326 11.79812,11.69104 L 47.292819,124.8725 c 5.997681,3.82599 12.69268,6.50873 19.949833,7.82971 l 3.21756,20.27161 c 2.286613,0.20794 4.631615,0.21447 6.971916,0.21447 3.303894,0 6.460052,-0.12524 9.653145,-0.53631 l 3.861359,-20.7005 c 6.890099,-1.71472 13.362938,-4.68946 18.984248,-8.68787 l 16.51749,12.01276 c 4.2835,-3.64429 8.20052,-7.83319 11.58367,-12.33448 l -12.01269,-17.37561 c 3.25345,-5.618524 5.50726,-11.81762 6.64975,-18.448175 l 20.27182,-3.217712 c 0.17837,-2.115417 0.21295,-4.166992 0.21295,-6.328117 0,-3.755623 -0.43674,-7.437935 -0.96555,-11.047493 l -20.59341,-3.753971 c -1.61386,-5.959099 -4.26172,-11.51886 -7.61499,-16.51757 l 12.11975,-16.624758 c -3.75686,-4.594421 -8.04236,-8.838621 -12.76333,-12.441832 l -17.48304,12.01281 c -5.02475,-2.9718 -10.431822,-5.251949 -16.303038,-6.542719 l -3.21759,-20.37879 c -2.928589,-0.34448 -5.8815,-0.53625 -8.902161,-0.53625 -0.816559,0 -1.6567,-0.02399 -2.467133,0 -0.394958,0.01257 -0.78595,-0.02399 -1.179626,0 -0.106293,0.00696 -0.216209,-0.00702 -0.322693,0 l 0.0018,2.4e-4 z m 2.788757,52.126831 c 0.392059,-0.0213 0.783234,0 1.179993,0 12.696114,0 23.06003,10.363956 23.06003,23.060177 0,12.696236 -10.363916,22.953011 -23.06003,22.953011 -12.696503,0 -22.95303,-10.256775 -22.95303,-22.953011 0,-12.299431 9.626102,-22.443779 21.773037,-23.060177 z" />
      </g>
    </g>
    <path
       style="fill:#808080;fill-rule:nonzero;stroke-width:15.9727726;stroke-linejoin:round;stroke-miterlimit:4;stroke-dashoffset:0"
       inkscape:connector-curvature="0"
       d="m 23.909981,13.075944 c -6.157348,0 -11.182581,5.020247 -11.182581,11.177591 0,6.157349 5.025233,11.182582 11.182581,11.182582 6.15735,0 11.177591,-5.025233 11.177591,-11.182582 0,-6.157344 -5.020241,-11.177591 -11.177591,-11.177591 z m 0,2.552168 c 4.776116,0 8.625424,3.849304 8.625424,8.625423 0,4.776117 -3.849308,8.630416 -8.625424,8.630416 -4.776118,0 -8.630415,-3.854299 -8.630415,-8.630416 0,-4.776119 3.854297,-8.625423 8.630415,-8.625423 z"
       id="path2327"
       stroke-miterlimit="4" />
    <path
       inkscape:connector-curvature="0"
       style="fill:#b3b3b3;fill-rule:nonzero;stroke-width:11.24526405;stroke-linejoin:round;stroke-miterlimit:4;stroke-dashoffset:0"
       d="m 23.909981,13.453027 c -5.95294,0 -10.803004,4.85006 -10.803004,10.803009 0,5.952941 4.850064,10.802998 10.803004,10.802998 5.952944,0 10.798013,-4.850057 10.798013,-10.802998 0,-5.952949 -4.845069,-10.803009 -10.798013,-10.803009 z m 0,1.798004 c 4.980522,0 9.005005,4.02448 9.005005,9.005005 0,4.98052 -4.024483,9.005002 -9.005005,9.005002 -4.980518,0 -9.005004,-4.024482 -9.005004,-9.005002 0,-4.980525 4.024486,-9.005005 9.005004,-9.005005 z"
       id="path3500"
       stroke-miterlimit="4" />
  </g>
</svg>
