<?xml version="1.0" encoding="UTF-8" standalone="no"?>
<svg
   xmlns:dc="http://purl.org/dc/elements/1.1/"
   xmlns:cc="http://creativecommons.org/ns#"
   xmlns:rdf="http://www.w3.org/1999/02/22-rdf-syntax-ns#"
   xmlns:svg="http://www.w3.org/2000/svg"
   xmlns="http://www.w3.org/2000/svg"
   xmlns:sodipodi="http://sodipodi.sourceforge.net/DTD/sodipodi-0.dtd"
   xmlns:inkscape="http://www.inkscape.org/namespaces/inkscape"
   id="svg1"
   sodipodi:docname="curves.svg"
   viewBox="0 0 60 60"
   sodipodi:version="0.32"
   _SVGFile__filename="oldscale/actions/14_polyline.svg"
   version="1.0"
   y="0"
   x="0"
   inkscape:version="0.48.4 r9939"
   width="100%"
   height="100%">
  <defs
     id="defs16" />
  <sodipodi:namedview
     id="base"
     bordercolor="#666666"
     inkscape:pageshadow="2"
     inkscape:window-y="-8"
     pagecolor="#ffffff"
     inkscape:window-height="1057"
     inkscape:zoom="6.9465337"
     inkscape:window-x="54"
     borderopacity="1.0"
     inkscape:current-layer="svg1"
     inkscape:cx="-7.0556026"
     inkscape:cy="33.16203"
     inkscape:window-width="1858"
     inkscape:pageopacity="0.0000000"
     showgrid="false"
     inkscape:window-maximized="1" />
  <metadata
     id="metadata14">
    <rdf:RDF>
      <cc:Work>
        <dc:format>image/svg+xml</dc:format>
        <dc:type
           rdf:resource="http://purl.org/dc/dcmitype/StillImage" />
        <cc:license
           rdf:resource="http://creativecommons.org/licenses/publicdomain/" />
        <dc:publisher>
          <cc:Agent
             rdf:about="http://openclipart.org/">
            <dc:title>Openclipart</dc:title>
          </cc:Agent>
        </dc:publisher>
        <dc:title />
      </cc:Work>
      <cc:License
         rdf:about="http://creativecommons.org/licenses/publicdomain/">
        <cc:permits
           rdf:resource="http://creativecommons.org/ns#Reproduction" />
        <cc:permits
           rdf:resource="http://creativecommons.org/ns#Distribution" />
        <cc:permits
           rdf:resource="http://creativecommons.org/ns#DerivativeWorks" />
      </cc:License>
    </rdf:RDF>
  </metadata>
  <path
     inkscape:connector-curvature="0"
     id="path830-1"
     sodipodi:nodetypes="cc"
     style="fill:none;stroke:#b3b3b3;stroke-width:3;stroke-linecap:round;stroke-linejoin:round;stroke-miterlimit:4;stroke-dasharray:none"
     d="M 18.580812,51.878797 C 19.634449,22.999089 21.651242,19.131169 53.775977,19.131169" />
  <path
     style="fill:none;stroke:#b3b3b3;stroke-width:3;stroke-linecap:butt;stroke-linejoin:miter;stroke-miterlimit:4;stroke-opacity:1;stroke-dasharray:none"
     d="M 14.722023,33.071322 34.266231,12.610979"
     id="path3758"
     inkscape:connector-curvature="0" />
  <path
     id="rect833"
     style="fill:#ffffff;fill-rule:evenodd;stroke:#b3b3b3;stroke-width:2.50000000000000000;stroke-linecap:round;stroke-linejoin:round"
     d="m 21.883789,19.515832 c -0.152,0 -0.276,0.123 -0.276,0.276 v 5.978999 c 0,0.153 0.124,0.276 0.276,0.276 h 5.979 c 0.153,0 0.276,-0.123 0.276,-0.276 v -5.978999 c 0,-0.153 -0.123,-0.276 -0.276,-0.276 h -5.979 z"
     inkscape:connector-curvature="0" />
  <path
     id="rect834"
     style="fill:#ffffff;fill-rule:evenodd;stroke:#b3b3b3;stroke-width:2.49996877000000020;stroke-linecap:round;stroke-linejoin:round"
     d="m 8.7263854,32.662717 c -0.153023,0 -0.275631,0.122608 -0.275631,0.27563 v 5.978331 c 0,0.153022 0.122608,0.276581 0.275631,0.276581 h 5.9783306 c 0.153023,0 0.276581,-0.123559 0.276581,-0.276581 v -5.978331 c 0,-0.153022 -0.123558,-0.27563 -0.276581,-0.27563 H 8.7263854 z"
     inkscape:connector-curvature="0" />
  <path
     id="rect832"
     style="fill:#ffffff;fill-rule:evenodd;stroke:#b3b3b3;stroke-width:2.49996877000000020;stroke-linecap:round;stroke-linejoin:round"
     d="m 32.888487,7.260567 c -0.152833,0 -0.275916,0.122608 -0.275916,0.2756305 v 5.9792805 c 0,0.152072 0.123083,0.275631 0.275916,0.275631 h 5.978615 c 0.152928,0 0.276011,-0.123559 0.276011,-0.275631 V 7.5361975 c 0,-0.1530225 -0.123083,-0.2756305 -0.276011,-0.2756305 h -5.978615 z"
     inkscape:connector-curvature="0" />
</svg>
