<?xml version="1.0" encoding="UTF-8" standalone="no"?>
<svg
   xmlns:dc="http://purl.org/dc/elements/1.1/"
   xmlns:cc="http://creativecommons.org/ns#"
   xmlns:rdf="http://www.w3.org/1999/02/22-rdf-syntax-ns#"
   xmlns:svg="http://www.w3.org/2000/svg"
   xmlns="http://www.w3.org/2000/svg"
   xmlns:sodipodi="http://sodipodi.sourceforge.net/DTD/sodipodi-0.dtd"
   xmlns:inkscape="http://www.inkscape.org/namespaces/inkscape"
   width="48"
   height="48"
   id="svg2"
   version="1.1"
   inkscape:version="0.48.2 r9819"
   sodipodi:docname="reset.svg">
  <defs
     id="defs21" />
  <sodipodi:namedview
     pagecolor="#ffffff"
     bordercolor="#666666"
     borderopacity="1"
     objecttolerance="10"
     gridtolerance="10"
     guidetolerance="10"
     inkscape:pageopacity="0"
     inkscape:pageshadow="2"
     inkscape:window-width="1837"
     inkscape:window-height="1178"
     id="namedview19"
     showgrid="false"
     inkscape:zoom="2.6074563"
     inkscape:cx="122.34897"
     inkscape:cy="29.712701"
     inkscape:window-x="75"
     inkscape:window-y="-8"
     inkscape:window-maximized="1"
     inkscape:current-layer="svg2" />
  <title
     id="title4">reset-full red</title>
  <metadata
     id="metadata7">image/svg+xmlReset2005-11-01Jean-Victor Balinjean.victor.balin@gmail.comicon<rdf:RDF>
  <cc:Work
     rdf:about="">
    <dc:format>image/svg+xml</dc:format>
    <dc:type
       rdf:resource="http://purl.org/dc/dcmitype/StillImage" />
  </cc:Work>
</rdf:RDF>
</metadata>
  <g
     id="g7"
     transform="matrix(0.71040082,0,0,0.71040082,1.6739535,1.9826911)"
     style="fill:#008000">
    <title
       id="title9">Layer 1</title>
    <g
       id="layer1"
       style="fill:#008000">
      <path
         stroke-miterlimit="4"
         id="path1388"
         d="m 4.91649,29.35166 c -0.14184,0.34609 -0.0742,0.714941 0.18683,0.982811 l 13.373811,13.363211 c 0.364069,0.352669 0.958158,0.361797 1.32222,0.0091 L 33.16256,30.333001 c 0.26104,-0.26787 0.35368,-0.647911 0.211842,-0.99399 -0.141842,-0.34609 -0.48941,-0.430481 -0.86335,-0.43812 0,0 -4.53318,0.008 -7.667881,0.008 -0.185101,-7.17428 5.262239,-17.6656 21.601589,-9.039761 0.35495,0.177811 0.869781,0.0973 1.096889,-0.33217 0.390862,-0.739119 -0.306038,-1.142139 -0.306038,-1.142139 0,0 -8.394951,-4.84682 -9.051102,-5.22565 -10.499269,-6.06175 -18.459049,-1.363009 -21.17878,4.33594 -2.017759,3.983049 -2.90292,8.419609 -3.46981,11.39233 -3.21105,0 -7.78452,9.9e-4 -7.78452,9.9e-4 -0.37394,0.0076 -0.69307,0.107161 -0.83491,0.453239 z"
         inkscape:connector-curvature="0"
         style="fill:#008000;stroke-width:0;stroke-linecap:round;stroke-linejoin:round;stroke-miterlimit:4" />
      <path
         stroke-miterlimit="4"
         d="M 6.360505,30.005678 19.159992,42.795944 31.937195,30.019085 c -0.57473,0.001 -4.183727,0.0073 -7.094242,0.0073 -0.596628,-0.0088 -1.079643,-0.487551 -1.093821,-1.08407 -0.100157,-3.88187 1.275419,-8.645315 5.061008,-11.378761 3.123114,-2.255091 7.839956,-2.712056 14.070219,-0.384592 -2.439148,-1.408241 -4.869072,-2.811156 -5.249638,-3.030877 -5.036808,-2.907998 -9.278488,-3.181764 -12.607038,-2.149715 -3.32855,1.032048 -5.790836,3.416976 -7.020428,5.993474 -0.0043,0.0076 -0.0086,0.01514 -0.01307,0.02263 -1.926695,3.803299 -2.793163,8.131174 -3.358298,11.094664 -0.09886,0.526957 -0.560058,0.908043 -1.096197,0.905798 -2.9595,-4e-6 -6.548789,-0.0094 -7.17519,-0.0093 z"
         id="path1432"
         inkscape:connector-curvature="0"
         style="fill:#008000;stroke-width:0;stroke-linecap:round;stroke-linejoin:round;stroke-miterlimit:4" />
      <path
         stroke-miterlimit="4"
         d="M 7.592905,30.536182 19.156742,42.06998 30.664413,30.551399 c -1.377773,0.0023 -3.42588,-0.0097 -5.817274,-0.0097 -0.876919,-0.0013 -1.595617,-0.696194 -1.626385,-1.572571 -0.103716,-4.019646 1.311932,-8.951778 5.286598,-11.821751 2.548578,-1.840236 6.139677,-2.451101 10.549604,-1.60262 -0.548901,-0.316909 -1.553066,-0.896663 -1.674454,-0.966745 -4.937309,-2.850554 -9.043056,-3.066528 -12.22493,-2.079957 -3.181871,0.986571 -5.506943,3.260921 -6.675634,5.709816 -0.0085,0.01522 -0.01718,0.03031 -0.02613,0.04525 -1.884129,3.719273 -2.738228,7.986658 -3.302542,10.945835 -0.144519,0.775871 -0.824187,1.336702 -1.613387,1.331285 -2.452825,4e-6 -4.5502,0.0057 -5.946977,0.0059 z"
         id="path1436"
         inkscape:connector-curvature="0"
         style="fill:#008000;stroke-width:0;stroke-linecap:round;stroke-linejoin:round;stroke-miterlimit:4" />
      <g
         transform="matrix(-0.418052,0.724088,-0.724088,-0.418052,75.53119,27.67007)"
         id="g1454"
         style="fill:#008000">
        <path
           stroke-miterlimit="4"
           d="m 17.063881,12.8632 c -0.443291,0.06005 -0.784891,0.350679 -0.90625,0.78125 L 10.31388,35.488201 c -0.14757,0.58799 0.19825,1.208797 0.78125,1.375 l 21.843751,5.84375 c 0.433559,0.11018 0.882599,-0.02112 1.15625,-0.375 0.273659,-0.353882 0.153217,-0.764362 -0.0625,-1.15625 0,0 -2.71916,-4.690632 -4.59375,-7.9375 7.320328,-4.482031 21.444668,-5.11367 22.28125,16.96875 0.02809,0.47398 0.419357,0.959087 1,0.9375 0.99931,-0.03716 1,-1 1,-1 0,0 0,-11.59383 0,-12.5 0,-14.500002 -9.626923,-19.934731 -17.15625,-19.343752 -5.33222,0.291941 -10.456881,2.028212 -13.875,3.21875 -1.92024,-3.32596 -4.65625,-8.062499 -4.65625,-8.062499 -0.231531,-0.38276 -0.525452,-0.6538 -0.96875,-0.59375 z"
           id="path1456"
           inkscape:connector-curvature="0"
           style="fill:#008000;stroke-width:0;stroke-linecap:round;stroke-linejoin:round;stroke-miterlimit:4" />
        <path
           stroke-miterlimit="4"
           id="path1458"
           d="m 17.25,14.75 -5.59375,20.90625 20.875,5.59375 c -0.344749,-0.594688 -2.50948,-4.329079 -4.25,-7.34375 -0.347639,-0.62326 -0.14064,-1.40984 0.46875,-1.78125 3.960892,-2.42514 9.717411,-3.84893 14.8125,-1.5625 4.203449,1.886311 7.49749,6.49868 8.8125,14.34375 0,-3.36858 0,-6.724419 0,-7.25 0,-6.95607 -2.25301,-11.51326 -5.3125,-14.34375 -3.05949,-2.83049 -7.002239,-3.954679 -10.40625,-3.6875 -0.01041,1.2e-4 -0.02084,1.2e-4 -0.03125,0 -5.091591,0.27877 -10.092501,1.96941 -13.5,3.15625 C 22.520069,22.99398 21.849541,22.74417 21.53125,22.1875 19.76144,19.122089 17.624729,15.39874 17.25,14.75 z"
           inkscape:connector-curvature="0"
           style="fill:#008000;stroke-width:0;stroke-linecap:round;stroke-linejoin:round;stroke-miterlimit:4" />
        <path
           stroke-miterlimit="4"
           id="path1460"
           d="m 17.4375,16.34375 -5.03125,18.875 18.8125,5.03125 C 30.392441,38.824299 29.18008,36.695721 27.75,34.21875 27.22691,33.309689 27.516911,32.1497 28.40625,31.59375 32.507721,29.082529 38.462929,27.599369 43.8125,30 c 3.430168,1.539301 6.210411,4.893608 7.96875,9.96875 0,-0.75806 0,-2.144859 0,-2.3125 0,-6.818661 -2.231579,-11.200491 -5.15625,-13.90625 -2.924671,-2.705759 -6.67083,-3.75395 -9.90625,-3.5 -0.02083,3.3e-4 -0.04167,3.3e-4 -0.0625,0 -4.979099,0.27261 -9.90996,1.93989 -13.3125,3.125 C 22.45369,23.689289 21.466339,23.320681 21,22.5 19.53318,19.9594 18.273069,17.79035 17.4375,16.34375 z"
           inkscape:connector-curvature="0"
           style="fill:#008000;stroke-width:0;stroke-linecap:round;stroke-linejoin:round;stroke-miterlimit:4" />
      </g>
    </g>
  </g>
</svg>
