<?xml version="1.0" encoding="UTF-8" standalone="no"?>
<!-- Generator: Adobe Illustrator 19.0.0, SVG Export Plug-In . SVG Version: 6.00 Build 0)  -->

<svg
   xmlns:dc="http://purl.org/dc/elements/1.1/"
   xmlns:cc="http://creativecommons.org/ns#"
   xmlns:rdf="http://www.w3.org/1999/02/22-rdf-syntax-ns#"
   xmlns:svg="http://www.w3.org/2000/svg"
   xmlns="http://www.w3.org/2000/svg"
   xmlns:xlink="http://www.w3.org/1999/xlink"
   xmlns:sodipodi="http://sodipodi.sourceforge.net/DTD/sodipodi-0.dtd"
   xmlns:inkscape="http://www.inkscape.org/namespaces/inkscape"
   version="1.1"
   id="Layer_1"
   x="0px"
   y="0px"
   viewBox="0 0 512.081 512.081"
   style="enable-background:new 0 0 512.081 512.081;"
   xml:space="preserve"
   sodipodi:docname="WBPicker.svg"
   inkscape:version="0.92.1 r15371"><metadata
     id="metadata57"><rdf:RDF><cc:Work
         rdf:about=""><dc:format>image/svg+xml</dc:format><dc:type
           rdf:resource="http://purl.org/dc/dcmitype/StillImage" /><dc:title></dc:title></cc:Work></rdf:RDF></metadata><defs
     id="defs55"><linearGradient
       id="linearGradient4629"
       inkscape:collect="always"><stop
         id="stop4625"
         offset="0"
         style="stop-color:#666666;stop-opacity:1" /><stop
         style="stop-color:#bfbfbf;stop-opacity:1"
         offset="0.50795823"
         id="stop4631" /><stop
         id="stop4627"
         offset="1"
         style="stop-color:#666666;stop-opacity:1" /></linearGradient><linearGradient
       inkscape:collect="always"
       id="linearGradient4621"><stop
         style="stop-color:#c6c6c6;stop-opacity:1"
         offset="0"
         id="stop4617" /><stop
         style="stop-color:#666666;stop-opacity:1"
         offset="1"
         id="stop4619" /></linearGradient><linearGradient
       inkscape:collect="always"
       id="linearGradient4601"><stop
         style="stop-color:#666666;stop-opacity:1;"
         offset="0"
         id="stop4597" /><stop
         id="stop4605"
         offset="0.54628319"
         style="stop-color:#9b9b9b;stop-opacity:1" /><stop
         style="stop-color:#666666;stop-opacity:1"
         offset="1"
         id="stop4599" /></linearGradient><linearGradient
       id="linearGradient4538"
       inkscape:collect="always"><stop
         id="stop4544"
         offset="0"
         style="stop-color:#3ea8f2;stop-opacity:1;" /><stop
         style="stop-color:#b0d9f9;stop-opacity:1"
         offset="0.53295434"
         id="stop4595" /><stop
         id="stop4546"
         offset="1"
         style="stop-color:#3ea8f2;stop-opacity:1" /></linearGradient><linearGradient
       inkscape:collect="always"
       xlink:href="#linearGradient4538"
       id="linearGradient4542"
       gradientUnits="userSpaceOnUse"
       x1="178.46048"
       y1="219.20573"
       x2="268.98059"
       y2="300.57452" /><linearGradient
       inkscape:collect="always"
       xlink:href="#linearGradient4601"
       id="linearGradient4603"
       x1="338.13663"
       y1="-2.8902478"
       x2="464.86383"
       y2="120.79033"
       gradientUnits="userSpaceOnUse" /><linearGradient
       inkscape:collect="always"
       xlink:href="#linearGradient4629"
       id="linearGradient4613"
       x1="104.45419"
       y1="259.68985"
       x2="223.65712"
       y2="376.86093"
       gradientUnits="userSpaceOnUse" /><radialGradient
       inkscape:collect="always"
       xlink:href="#linearGradient4621"
       id="radialGradient4623"
       cx="57.874413"
       cy="473.53619"
       fx="57.874413"
       fy="473.53619"
       r="30.29325"
       gradientTransform="matrix(0.72123325,0.02120923,-0.02094704,0.7123172,26.052641,136.23287)"
       gradientUnits="userSpaceOnUse" /></defs><sodipodi:namedview
     pagecolor="#ffffff"
     bordercolor="#666666"
     borderopacity="1"
     objecttolerance="10"
     gridtolerance="10"
     guidetolerance="10"
     inkscape:pageopacity="0"
     inkscape:pageshadow="2"
     inkscape:window-width="2498"
     inkscape:window-height="1417"
     id="namedview53"
     showgrid="false"
     inkscape:zoom="1.3035219"
     inkscape:cx="99.855122"
     inkscape:cy="126.50896"
     inkscape:window-x="54"
     inkscape:window-y="-8"
     inkscape:window-maximized="1"
     inkscape:current-layer="g20" /><g
     transform="translate(1)"
     id="g20"><path
       style="fill:url(#radialGradient4623);fill-opacity:1"
       d="M41.966,495.014L41.966,495.014c-11.947-11.947-11.947-30.72,0-42.667l21.333-21.333l21.333,21.333   c11.947,11.947,11.947,30.72,0,42.667l0,0C72.686,506.107,53.059,506.107,41.966,495.014"
       id="path2" /><path
       style="fill:url(#linearGradient4542);fill-opacity:1.0"
       d="M368.793,189.521l-72.533-72.533L151.193,262.054c-11.947,12.8-21.333,27.307-26.453,44.373v0.853   c-5.12,17.067-14.507,31.573-26.453,44.373l-31.573,31.573l35.84,35.84l31.573-31.573c12.8-12.8,28.16-22.187,45.227-27.307l0,0   c17.067-5.12,32.427-14.507,45.227-27.307L368.793,189.521z"
       id="path4" /><path
       style="fill:url(#linearGradient4613);fill-opacity:1.0"
       d="M158.019,256.081l-5.973,5.973c-11.947,12.8-21.333,27.307-26.453,44.373v0.853   c-5.12,17.067-14.507,31.573-26.453,44.373l-31.573,31.573l35.84,35.84l31.573-31.573c12.8-12.8,28.16-22.187,45.227-27.307   c17.067-5.12,32.427-14.507,45.227-27.307l78.507-78.507h-145.92V256.081z"
       id="path6" /><path
       style="fill:#556080;"
       d="M78.659,383.227l23.893,23.893l25.6-25.6c13.653-13.653,30.72-23.893,48.64-29.013   c15.36-4.267,29.867-12.8,41.813-24.747l138.24-138.24l-60.587-60.587l-138.24,139.093c-11.093,11.093-19.627,25.6-24.747,40.96   c-5.973,18.773-15.36,34.987-29.013,48.64L78.659,383.227z M102.553,431.014l-48.64-48.64l37.547-37.547   c11.093-11.093,19.627-25.6,24.747-40.96c5.973-18.773,15.36-34.987,29.013-48.64l151.04-151.04l84.48,84.48L230.553,340.561   c-13.653,13.653-30.72,23.893-48.64,29.013c-15.36,4.267-29.867,12.8-41.813,24.747L102.553,431.014z"
       id="path8" /><path
       style="fill:url(#linearGradient4603);fill-opacity:1"
       d="M435.353,111.867l29.013-29.013c15.36-15.36,18.773-40.96,4.267-58.88   c-16.213-19.627-46.08-20.48-63.147-3.413l-30.72,30.72c-12.8,12.8-34.987,12.8-47.787,0l-5.12-5.12   c-4.267-4.267-10.24-4.267-14.507,0l-33.28,33.28c-4.267,4.267-4.267,10.24,0,14.507l117.76,118.613   c4.267,4.267,10.24,4.267,14.507,0l33.28-33.28c4.267-4.267,4.267-10.24,0-14.507l-5.12-5.12   C421.699,146.001,421.699,124.667,435.353,111.867"
       id="path10" /><path
       d="M63.299,512.081c-10.24,0-19.627-3.413-27.307-11.093l0,0c-15.36-15.36-15.36-39.253,0-54.613l21.333-21.333   c3.413-3.413,8.533-3.413,11.947,0l21.333,21.333c7.68,7.68,11.093,17.067,11.093,27.307c0,10.24-4.267,20.48-11.093,27.307   C82.926,508.667,72.686,512.081,63.299,512.081z M47.939,489.041c8.533,8.533,22.187,8.533,30.72,0   c3.413-4.267,5.973-10.24,5.973-15.36s-2.56-11.093-5.973-15.36l-15.36-15.36l-15.36,15.36   C39.406,466.854,39.406,480.507,47.939,489.041L47.939,489.041z"
       id="path12" /><path
       d="M398.659,224.507c-5.12,0-10.24-1.707-13.653-5.973l-117.76-117.76c-3.413-3.413-5.973-8.533-5.973-13.653   c0-5.12,1.707-10.24,5.973-13.653l33.28-33.28c7.68-7.68,19.627-7.68,26.453,0l5.12,5.12c9.387,9.387,26.453,9.387,35.84,0   l29.867-29.867c11.093-10.24,25.6-16.213,40.107-15.36c14.507,0.853,28.16,7.68,36.693,18.773   c16.213,20.48,14.507,51.2-5.12,69.973l-29.013,29.013c-10.24,10.24-10.24,25.6,0,35.84l5.12,5.12c7.68,7.68,7.68,19.627,0,26.453   l-33.28,33.28C408.899,221.947,403.779,224.507,398.659,224.507z M314.179,51.281c-0.853,0-0.853,0-1.707,0.853l-32.427,33.28   c-0.853,0.853-0.853,0.853-0.853,1.707c0,0,0,0.853,0.853,1.707l117.76,117.76c0.853,0.853,1.707,0.853,2.56,0l33.28-33.28   c0.853-0.853,0.853-1.707,0-2.56l-5.12-5.12c-16.213-16.213-16.213-43.52,0-59.733l29.013-29.013   c12.8-12.8,14.507-34.133,3.413-46.933c-5.973-7.68-15.36-11.947-24.747-12.8c-9.387-0.853-18.773,3.413-25.6,10.24l-29.867,29.867   c-7.68,7.68-18.773,12.8-29.867,12.8s-22.187-4.267-29.867-12.8l-5.12-5.12C315.886,52.134,315.033,51.281,314.179,51.281z"
       id="path14" /><path
       d="M102.553,431.014l-48.64-48.64l37.547-37.547c11.093-11.093,19.627-25.6,24.747-40.96   c5.973-18.773,15.36-34.987,29.013-48.64l151.04-151.04l84.48,84.48L230.553,340.561c-13.653,13.653-30.72,23.893-48.64,29.013   c-15.36,4.267-29.867,12.8-41.813,24.747L102.553,431.014z M78.659,383.227l23.893,23.893l25.6-25.6   c13.653-13.653,30.72-23.893,48.64-29.013c15.36-4.267,29.867-12.8,41.813-24.747l138.24-138.24l-60.587-60.587l-138.24,139.093   c-11.093,11.093-19.627,25.6-24.747,40.96c-5.973,18.773-15.36,34.987-29.013,48.64L78.659,383.227z"
       id="path16" /><path
       d="M102.553,431.014l-48.64-48.64l37.547-37.547c11.093-11.093,19.627-25.6,24.747-40.96   c5.973-18.773,15.36-34.987,29.013-48.64l8.533-8.533h168.96l-92.16,93.867c-13.653,13.653-30.72,23.893-48.64,29.013   c-15.36,4.267-29.867,12.8-41.813,24.747L102.553,431.014z M78.659,383.227l23.893,23.893l25.6-25.6   c13.653-13.653,30.72-23.893,48.64-29.013c15.36-4.267,29.867-12.8,41.813-24.747l63.147-63.147h-120.32l-3.413,3.413   c-11.093,11.093-19.627,25.6-24.747,40.96c-5.973,18.773-15.36,34.987-29.013,48.64L78.659,383.227z"
       id="path18" /></g><g
     id="g22" /><g
     id="g24" /><g
     id="g26" /><g
     id="g28" /><g
     id="g30" /><g
     id="g32" /><g
     id="g34" /><g
     id="g36" /><g
     id="g38" /><g
     id="g40" /><g
     id="g42" /><g
     id="g44" /><g
     id="g46" /><g
     id="g48" /><g
     id="g50" /></svg>